<?xml version="1.0" encoding="UTF-8"?>
<!DOCTYPE svg PUBLIC "-//W3C//DTD SVG 1.1//EN" "http://www.w3.org/Graphics/SVG/1.1/DTD/svg11.dtd">
<svg xmlns="http://www.w3.org/2000/svg" version="1.1" width="64px" height="64px" style="shape-rendering:geometricPrecision; text-rendering:geometricPrecision; image-rendering:optimizeQuality; fill-rule:evenodd; clip-rule:evenodd" xmlns:xlink="http://www.w3.org/1999/xlink">
<g><path style="opacity:0.894" fill="#12b786" d="M 29.5,1.5 C 34.58,1.6202 36.9133,4.28687 36.5,9.5C 37.8734,9.65668 39.2068,9.49001 40.5,9C 38.9632,7.89037 38.2965,6.39037 38.5,4.5C 41.7916,4.11955 44.1249,5.45289 45.5,8.5C 49.1224,9.32528 52.789,9.82528 56.5,10C 58.4439,12.1529 58.9439,14.6529 58,17.5C 54.5,21 51,24.5 47.5,28C 44.5,28.6667 41.5,28.6667 38.5,28C 37.3849,22.5891 36.5516,17.0891 36,11.5C 35.2825,10.5494 34.4491,10.3828 33.5,11C 34.8571,16.7124 35.5237,22.5457 35.5,28.5C 29.8333,28.5 24.1667,28.5 18.5,28.5C 19.5958,22.1461 21.9291,16.3128 25.5,11C 25.1667,10.8333 24.8333,10.6667 24.5,10.5C 20.2208,15.7299 17.5541,21.7299 16.5,28.5C 12.8333,28.5 9.16667,28.5 5.5,28.5C 5.33537,25.4816 5.50204,22.4816 6,19.5C 9.16667,16.3333 12.3333,13.1667 15.5,10C 17.8333,9.66667 20.1667,9.33333 22.5,9C 24.3612,5.97503 26.6945,3.47503 29.5,1.5 Z M 30.5,5.5 C 33.4519,8.70444 32.7852,9.70444 28.5,8.5C 29.1925,7.48224 29.8592,6.48224 30.5,5.5 Z"/></g>
<g><path style="opacity:0.955" fill="#12b886" d="M 48.5,63.5 C 34.8333,63.5 21.1667,63.5 7.5,63.5C 7.21719,62.7109 6.71719,62.0442 6,61.5C 5.50017,51.172 5.33351,40.8387 5.5,30.5C 8.83333,30.5 12.1667,30.5 15.5,30.5C 15.2537,32.7805 15.2537,34.7805 15.5,36.5C 17.2825,34.9775 17.9492,32.9775 17.5,30.5C 23.5092,30.3338 29.5092,30.5005 35.5,31C 37.2294,38.3629 38.2294,38.1962 38.5,30.5C 41.5184,30.6646 44.5184,30.498 47.5,30C 50.5214,26.1228 54.188,23.2895 58.5,21.5C 58.6665,32.1719 58.4998,42.8385 58,53.5C 54.6291,56.7025 51.4625,60.0359 48.5,63.5 Z M 21.5,42.5 C 23.8478,44.6802 26.3478,46.6802 29,48.5C 30.9613,47.1034 33.1279,46.1034 35.5,45.5C 36.1667,45.8333 36.8333,46.1667 37.5,46.5C 34.5881,47.4289 31.9214,48.7622 29.5,50.5C 26.5935,49.1026 24.0935,47.1026 22,44.5C 20.4905,46.2077 18.9905,47.8744 17.5,49.5C 16.479,48.9984 16.3123,48.3317 17,47.5C 18.7073,45.9625 20.2073,44.2959 21.5,42.5 Z"/></g>
</svg>
